<?xml version="1.0" encoding="utf-8"?>
<!-- Generator: Adobe Illustrator 18.0.0, SVG Export Plug-In . SVG Version: 6.00 Build 0)  -->
<!DOCTYPE svg PUBLIC "-//W3C//DTD SVG 1.1//EN" "http://www.w3.org/Graphics/SVG/1.1/DTD/svg11.dtd">
<svg version="1.1" id="Layer_1" xmlns="http://www.w3.org/2000/svg" xmlns:xlink="http://www.w3.org/1999/xlink" x="0px" y="0px"
	 viewBox="0 0 144.5 75.8" enable-background="new 0 0 144.5 75.8" xml:space="preserve">
<g>
	<g>
		<g>
			<path fill="#59585B" d="M0.4,40.5c0.4,0.1,0.7,0.1,1,0.1c1.1,0,1.9-0.3,2.5-0.9c0.7-0.7,1-1.8,1-3.6v-7.7c0-0.4-0.2-0.6-0.5-0.6
				H3.5C3.2,27.8,3,28,3,28.4v8c0,1.2-0.1,1.9-0.4,2.2C2.3,38.8,1.9,39,1.5,39c-0.3,0-0.6,0-0.8-0.1l-0.1,0c-0.2,0-0.4,0.1-0.4,0.4
				L0,40V40C0,40.3,0.2,40.5,0.4,40.5z"/>
			<path fill="#59585B" d="M60.9,23.1c0-0.3-0.2-0.5-0.5-0.5l-1,0.1C59,22.8,59,23,59,23.3l0,8.4c0,0.8-0.1,1.5-0.4,1.8
				c-0.2,0.2-0.5,0.4-0.9,0.5h-4.2c1.4-3,0.8-5-2-6.6c-2.9-1.6-5.4-0.8-7.2,2.5l-0.5,0.8v-6.3c0-0.3-0.2-0.5-0.5-0.5l-1,0.1
				c-0.4,0.1-0.5,0.3-0.5,0.6v9.4l-12.5,0c-0.8-0.1-1-0.6-1-1.7l0-5.3c0-0.3-0.2-0.5-0.5-0.5l-1,0.2c-0.4,0.1-0.5,0.3-0.5,0.6l0,5.1
				c0,1.1-0.2,1.5-1,1.7L9,34c-0.8-0.1-1-0.5-1-1.7v-9.2c0-0.3-0.2-0.5-0.5-0.5l-1,0.1c-0.4,0.1-0.5,0.3-0.5,0.6v9.2
				c0,2.2,1,3.3,2.8,3.4h16.4c0.8,0,1.4-0.2,1.9-0.7c0.5,0.4,1.1,0.7,1.9,0.7h28l0,0c0,0,0.1,0,0.1,0c0.2,0,0.3,0,0.4,0v0
				c0.9,0,1.6-0.3,2.1-0.7c1-0.8,1.1-2.5,1.1-3.9V23.1z M51,34h-6.8l1.6-2.8c0.8-1.4,1.7-2.6,3-2.6c0.5,0,1,0.2,1.6,0.5
				C52.6,30.2,52.3,31.7,51,34z"/>
			<path fill="#59585B" d="M26.8,38.6c0.1,0.5,0.5,0.8,1.1,0.8c0.6,0,1.1-0.5,1.1-1.1c0-0.6-0.5-1.1-1.1-1.1c-0.5,0-1,0.4-1.1,0.8
				c-0.1-0.5-0.6-0.8-1.1-0.8c-0.6,0-1.1,0.5-1.1,1.1c0,0.6,0.5,1.1,1.1,1.1C26.3,39.4,26.7,39.1,26.8,38.6z"/>
			<path fill="#59585B" d="M64.8,22.6l-1,0.1c-0.4,0.1-0.5,0.3-0.5,0.6v12.1c0,0.4,0.2,0.6,0.5,0.6h0.9c0.3,0,0.5-0.2,0.5-0.6V23.1
				C65.3,22.8,65.1,22.6,64.8,22.6z"/>
			<path fill="#59585B" d="M26,24.9c0.2,0.3,0.4,0.5,0.7,0.5c0.1,0,0.3,0,0.4-0.1l0.3-0.2c0.2-0.1,0.3-0.2,0.3-0.4
				c0.1,0,0.3,0,0.4-0.1l0.3-0.2c0.4-0.3,0.5-0.7,0.2-1.1l-0.6-1c-0.1-0.1-0.2-0.1-0.3-0.1l-0.2,0.1c-0.1,0.1-0.1,0.2-0.1,0.3l0.6,1
				c0.1,0.2,0.1,0.3,0.1,0.4L28,24.1c-0.1,0.1-0.2,0-0.4-0.2l-0.6-1c-0.1-0.1-0.1-0.1-0.2-0.1c0,0-0.1,0-0.1,0l-0.2,0.1
				c-0.1,0-0.1,0.1-0.1,0.1c0,0,0,0.1,0,0.1l0.6,1c0.2,0.2,0.1,0.3,0.1,0.4l-0.3,0.2c-0.1,0.1-0.2,0-0.4-0.2l-0.6-1
				c-0.1-0.1-0.1-0.1-0.2-0.1c0,0-0.1,0-0.1,0l-0.2,0.1c-0.1,0.1-0.1,0.2-0.1,0.3L26,24.9z"/>
			<path fill="#59585B" d="M6.5,44.8c-0.1-0.2-0.2-0.3-0.5-0.3H4.7c-0.3,0-0.4,0.1-0.5,0.3L0,55.8C0,55.9,0,56,0,56
				c0,0.1,0.1,0.2,0.2,0.2h1.5c0.3,0,0.4-0.1,0.5-0.4l0.9-2.6h4.3l0.9,2.5c0.1,0.3,0.2,0.4,0.6,0.4h1.5c0.2,0,0.3-0.1,0.3-0.3
				c0-0.1,0-0.1,0-0.2L6.5,44.8z M3.7,51.7l1.2-3.6c0.2-0.5,0.3-0.8,0.4-1.1h0c0.1,0.3,0.2,0.6,0.3,1.1l1.2,3.6H3.7z"/>
			<path fill="#59585B" d="M13.4,44.1c0,0-0.1,0-0.1,0l-1.2,0.2c-0.2,0-0.3,0.1-0.3,0.4v11.2c0,0.3,0.2,0.4,0.4,0.4h1.3
				c0.2,0,0.4-0.1,0.4-0.4V44.4C13.8,44.2,13.6,44.1,13.4,44.1z"/>
			<path fill="#59585B" d="M26.8,45.9l0.1-1c0-0.3-0.1-0.4-0.5-0.4h-8.6c-0.3,0-0.4,0.1-0.4,0.4v1c0,0.3,0.1,0.4,0.4,0.4H21v9.6
				c0,0.3,0.1,0.4,0.4,0.4h1.5c0.3,0,0.4-0.1,0.4-0.4v-9.6h3.1C26.6,46.2,26.8,46.2,26.8,45.9z"/>
			<path fill="#59585B" d="M33.1,54.8h-0.1c-0.1,0-0.2,0-0.2-0.1c-0.1-0.1-0.1-0.3-0.1-0.5v-5.9c0-0.3-0.1-0.4-0.4-0.4h-1.2
				c-0.2,0-0.3,0.1-0.4,0.3l0,0.5c-0.4-0.6-1.3-1-2.2-1c-1.9,0-3.7,1.6-3.7,4.5c0,2.2,1.1,4.2,3.5,4.2c0.9,0,2-0.6,2.5-1.2h0
				c0.1,0.6,0.5,1,1.4,1H33c0.2,0,0.3-0.1,0.3-0.3v-0.8C33.4,54.9,33.3,54.8,33.1,54.8z M30.6,53.6c-0.3,0.5-1,1.2-1.8,1.2
				c-1.3,0-1.8-1.2-1.8-2.6c0-1.8,0.9-2.7,1.9-2.7c0.6,0,1.3,0.4,1.7,0.9V53.6z"/>
			<path fill="#59585B" d="M41.7,48h-1.4c-0.3,0-0.4,0.1-0.5,0.4L38,53.9l-1.9-5.6C36.1,48.1,36,48,35.7,48h-1.6
				c-0.2,0-0.3,0.1-0.3,0.2c0,0,0,0.1,0,0.1l3.1,8l-0.3,0.8c-0.3,0.8-0.8,1.2-1.8,1.2c-0.2,0-0.4,0-0.6-0.1c0,0-0.1,0-0.1,0
				c-0.2,0-0.3,0.1-0.3,0.3l-0.1,0.9c0,0.1,0,0.1,0,0.2c0,0.2,0.1,0.3,0.3,0.3c0.3,0.1,0.6,0.1,0.9,0.1c2,0,3-0.7,3.8-2.7l3.4-8.8
				c0-0.1,0-0.1,0-0.2C42,48.1,41.9,48,41.7,48z"/>
			<path fill="#59585B" d="M50.6,48h-1.4c-0.3,0-0.4,0.1-0.5,0.4l-1.8,5.5L45,48.3c-0.1-0.2-0.2-0.3-0.4-0.3H43
				c-0.2,0-0.3,0.1-0.3,0.2c0,0,0,0.1,0,0.1l3.1,8l-0.3,0.8c-0.3,0.8-0.8,1.2-1.8,1.2c-0.2,0-0.4,0-0.6-0.1c0,0-0.1,0-0.1,0
				c-0.2,0-0.3,0.1-0.3,0.3l-0.1,0.9c0,0.1,0,0.1,0,0.2c0,0.2,0.1,0.3,0.3,0.3c0.3,0.1,0.6,0.1,0.9,0.1c2,0,3-0.7,3.8-2.7l3.4-8.8
				c0-0.1,0-0.1,0-0.2C50.9,48.1,50.8,48,50.6,48z"/>
			<path fill="#59585B" d="M59.3,54.8h-0.1c-0.1,0-0.2,0-0.2-0.1c-0.1-0.1-0.1-0.3-0.1-0.5v-5.9c0-0.3-0.1-0.4-0.4-0.4h-1.2
				c-0.2,0-0.3,0.1-0.4,0.3l0,0.5c-0.4-0.6-1.3-1-2.2-1c-1.9,0-3.7,1.6-3.7,4.5c0,2.2,1.1,4.2,3.5,4.2c0.9,0,2-0.6,2.5-1.2h0
				c0.1,0.6,0.5,1,1.4,1h0.8c0.2,0,0.3-0.1,0.3-0.3v-0.8C59.7,54.9,59.6,54.8,59.3,54.8z M56.8,53.6c-0.3,0.5-1,1.2-1.8,1.2
				c-1.3,0-1.8-1.2-1.8-2.6c0-1.8,0.9-2.7,1.9-2.7c0.6,0,1.3,0.4,1.7,0.9V53.6z"/>
			<path fill="#59585B" d="M65.1,47.8c-0.2,0-0.3-0.1-0.5-0.1c-1,0-1.5,0.4-2.1,1.1l0-0.5c0-0.2-0.2-0.3-0.4-0.3H61
				c-0.3,0-0.4,0.1-0.4,0.4v2.1v5.3c0,0.3,0.1,0.4,0.4,0.4h1.2c0.3,0,0.4-0.2,0.4-0.4v-5.4c0.4-0.5,1.1-0.8,1.6-0.8
				c0.2,0,0.3,0,0.5,0.1c0,0,0,0,0.1,0c0.1,0,0.2-0.1,0.2-0.2l0.2-1.2c0-0.1,0-0.1,0-0.2C65.2,47.9,65.2,47.9,65.1,47.8z"/>
		</g>
		<g>
			<g>
				<path fill="#FFFFFF" d="M84.3,24.7l-0.5,0l0.6,0.8l0.6-0.3l1.1,1.3l0.2,1.8l3.3,3.1l0.9-0.1l0.9,0.8l2.6,1l0.7-0.2l0.7,1
					l1.1-0.3l0.2,1l-0.3,0.8l1.7,3l1.2,0.3l0.3,5.4l0.5,2.7l1.6,1.4l0.4-0.8l-0.8-0.7l0.6-0.8c0-0.4-0.2-0.8-0.4-1.2l3.8-7l-0.1-1.7
					l0.4-0.9l-2.5-1.2l-0.9,0.2l-0.4-1.3l-1.3,0.3l-0.3-1.1l-1.6,0.3l-0.9-0.2l-1,0.8l-1.2,0.2l-0.4-1.1l-0.7,0.1l0-1.1L94,31
					l-0.6,0.5l-0.3,0.1L92.2,31l0.5-1.4l1.8-0.4l0.7,0.6l0.5-0.1l-0.5-1.1l1-1.3l-0.3-0.7l0.4-0.7l0.4,0l-0.2-1l2.6-2.4l-2.6-2.4
					l-2.7,0l0.3,1.4l0.3,0.2l-0.1,1.5L92.9,22l-1.3-0.1L91,21.5l0.6-1.5l1.7-0.1L92.8,19l0.1-1.2l0.7-0.1l0,1.6l2.3,0l0.9-1.6
					l-4.3-2.6l2.1-3.9l-3.1,0.4l-5.4,3.7c0,0,0,0,0,0c-1.9,2.4-3.3,5.2-4.1,8.2h0.7L84.3,24.7z"/>
				<path fill="#6EC4E9" d="M125,23.8l-1.4-0.4l-4.1-0.7l-0.4,0.4l1,1.2l1.1-0.5l1.3,0.9l-2.7,2.4l-2.9-2.7l-0.3,0.3l3.1,3.2
					l1.7-0.5l-0.5,2l-1.6,2.2l1.3,1.9l-0.9,3.7l-0.7,1.8l-1.3,0.8l-1.9-1.9l-1.4-2.6l0.2-0.7l-0.2-1.1l-1.4-1.3l0.4-0.4l-1.3-0.6
					l-2.3,0.4l-1.6-1l-0.6-2.8l2.4-3.5l1.6-0.5l0.5,0.5l-0.1,0.4l1.4,0.3l0.6-0.8l0.6,0.4l1.8-0.3l0.2-0.5l-0.2-1l-0.5,1.2l-1.3-1.2
					l0.5,1.4l-1.1-0.5l-0.4-1.2l-1.4-1.2l-0.1,0.3l1.2,1.1l-0.3,1.1l-0.5-1.1l-1.1-0.7l-0.5,0.7l-0.3-0.1l-1.5,2.3l-1.1-1.8l1.4-0.2
					l0.1-0.7l-0.6-0.5l0.7-0.9l0.5-0.2l0.7-1.1l-0.5-0.6l0.5-0.4l0.5,0.5l1.6-0.5l0-0.5l1.6-1.1l-0.3-0.4l-1.1,0.7l-0.5-0.8l0.6-0.9
					l-0.6-0.4l-0.8,1.7l0.5,0.3l0.1,0.9l-1,0.6l-0.4-0.7l-1.1,0.5l-0.2-1.2l1.4-3.2l1.9-1l3.4,0.2l-0.4,1.1l-1.3,0.1l1,0.8l2.1-2.3
					l1.2-0.2l0.2,0c-4-3.6-9.3-5.8-15.2-5.8c-7.2,0-13.6,3.4-17.8,8.6c0,0,0,0,0,0l5.4-3.7l3.1-0.4l-2.1,3.9l4.3,2.6l-0.9,1.6
					l-2.3,0l0-1.6l-0.7,0.1L92.8,19l0.5,0.9L91.5,20l-0.6,1.5l0.7,0.5l1.3,0.1l1.3,1.2l0.1-1.5L94,21.5l-0.3-1.4l2.7,0l2.6,2.4
					l-2.6,2.4l0.2,1l-0.4,0l-0.4,0.7l0.3,0.7l-1,1.3l0.5,1.1l-0.5,0.1l-0.7-0.6l-1.8,0.4L92.2,31l0.9,0.6l0.3-0.1L94,31l0.4,0.1
					l0,1.1l0.7-0.1l0.4,1.1l1.2-0.2l1-0.8l0.9,0.2l1.6-0.3l0.3,1.1l1.3-0.3l0.4,1.3l0.9-0.2l2.5,1.2l-0.4,0.9l0.1,1.7l-3.8,7
					c0.2,0.4,0.4,0.8,0.4,1.2l-0.6,0.8l0.8,0.7l-0.4,0.8l-1.6-1.4l-0.5-2.7l-0.3-5.4l-1.2-0.3l-1.7-3l0.3-0.8l-0.2-1L95.3,34l-0.7-1
					l-0.7,0.2l-2.6-1l-0.9-0.8l-0.9,0.1l-3.3-3.1L86,26.5l-1.1-1.3l-0.6,0.3l-0.6-0.8l0.5,0l-1.5-1.2H82c-0.5,1.9-0.8,3.9-0.8,5.9
					c0,12.5,10.2,22.7,22.7,22.7c12.5,0,22.7-10.2,22.7-22.7c0-1-0.1-2.1-0.2-3.1L125,23.8z"/>
				<path fill="#FFFFFF" d="M117.7,12.8l-2.1,2.3l-1-0.8l1.3-0.1l0.4-1.1l-3.4-0.2l-1.9,1l-1.4,3.2l0.2,1.2l1.1-0.5l0.4,0.7l1-0.6
					l-0.1-0.9l-0.5-0.3l0.8-1.7l0.6,0.4l-0.6,0.9l0.5,0.8l1.1-0.7l0.3,0.4l-1.6,1.1l0,0.5l-1.6,0.5l-0.5-0.5l-0.5,0.4l0.5,0.6
					l-0.7,1.1l-0.5,0.2l-0.7,0.9l0.6,0.5l-0.1,0.7l-1.4,0.2l1.1,1.8l1.5-2.3l0.3,0.1l0.5-0.7l1.1,0.7l0.5,1.1l0.3-1.1l-1.2-1.1
					l0.1-0.3l1.4,1.2l0.4,1.2l1.1,0.5l-0.5-1.4l1.3,1.2l0.5-1.2l0.2,1l-0.2,0.5l-1.8,0.3l-0.6-0.4l-0.6,0.8l-1.4-0.3l0.1-0.4
					l-0.5-0.5l-1.6,0.5l-2.4,3.5l0.6,2.8l1.6,1l2.3-0.4l1.3,0.6l-0.4,0.4l1.4,1.3l0.2,1.1l-0.2,0.7l1.4,2.6l1.9,1.9l1.3-0.8l0.7-1.8
					l0.9-3.7l-1.3-1.9l1.6-2.2l0.5-2l-1.7,0.5l-3.1-3.2l0.3-0.3l2.9,2.7l2.7-2.4l-1.3-0.9l-1.1,0.5l-1-1.2l0.4-0.4l4.1,0.7l1.4,0.4
					l1.3,2.5c-0.7-5.4-3.4-10.3-7.3-13.8l-0.2,0L117.7,12.8z"/>
				<polygon fill="#FFFFFF" points="122.3,33 122.5,36.2 121.7,36.3 121.3,34.2 				"/>
				<polygon fill="#FFFFFF" points="112.3,23 112.7,23.7 112.1,23.6 				"/>
				<polygon fill="#FFFFFF" points="108,18.3 108.5,19.2 109.4,19.7 109.5,20.4 108.3,20.7 108.5,19.8 107.6,19.1 				"/>
				<polygon fill="#FFFFFF" points="107.2,19.5 108,20.3 107.6,21 106.9,20.6 				"/>
				<polygon fill="#FFFFFF" points="96.5,31 95.2,31 95.1,30.2 96.5,30.4 				"/>
				<polygon fill="#FFFFFF" points="96.2,29.7 96.1,29.1 97,29.9 				"/>
				<polygon fill="#FFFFFF" points="99.3,31.4 97.1,31 97.2,30.6 99.7,31.2 				"/>
				<polygon fill="#FFFFFF" points="105.1,18.2 103.9,16.9 105.5,16.1 106.4,16.7 				"/>
				<path fill="none" d="M126.5,29.4c0,12.5-10.2,22.7-22.7,22.7c-12.5,0-22.7-10.2-22.7-22.7c0-12.5,10.2-22.7,22.7-22.7
					C116.4,6.7,126.5,16.9,126.5,29.4z"/>
				<line fill="#00B3E3" x1="130.8" y1="11.6" x2="130.9" y2="11.7"/>
				<path fill="#00B3E3" d="M131,11.7l0.8,0.3l1.1,2.9l1-1l-0.4-2.4l5.4-4.8l3.2,8.4l0,0l1.4-1.3l-1.8-9.6l0.9-0.8
					c0.6-0.5,1-1.1,1.3-1.6l0.4-0.7c0.3-0.6,0.4-0.9,0.2-1.1c-0.2-0.2-0.5-0.1-1.1,0.1l-0.8,0.3c-0.5,0.3-1.1,0.7-1.6,1.2l-0.9,0.9
					l-9.5-2.3l-1.4,1.3l8.3,3.7l-5.2,5.1L130,9.9l-1,0.9l1.8,0.8"/>
				<path fill="#7BC143" d="M135.9,19.1c-28.1,27.2-56,48.1-47.7,26.7c-0.4-0.4-0.4-0.3-0.5-0.5c-2.8,4.2-8.1,12.8-3.9,14.5
					C97.3,65.1,135.9,19.1,135.9,19.1z"/>
				<path fill="#00B3E3" d="M83,38.4c-2.3,3.2-9.5,13.9-4.8,15.8c13.4,5.2,52.1-40.7,52.1-40.7c-28.7,27.8-57.3,49-47.1,25.2"/>
				<path fill="#FDB822" d="M126.1,6.7C96.9,34.9,68,56.3,79.6,30.6c0,0-11.1,14.6-5.5,16.7C87.5,52.6,126.1,6.7,126.1,6.7z"/>
			</g>
			<polygon fill="#FFFFFF" points="104,11.2 104.8,10.1 102.6,8.8 95.4,11.3 94.2,14.1 94.9,14.8 95.9,14.3 97.1,14.9 98.1,17.6 
				99.8,19.5 100.8,19.4 101.1,17.7 103.3,16.4 104.3,13.6 			"/>
		</g>
	</g>
	<g>
		<rect x="9.7" y="63.4" fill="#59585B" width="1" height="1.2"/>
		<path fill="#59585B" d="M33.9,70.4c0,1.5-0.4,2-1.4,2h-1.7c0.2-0.4,0.3-0.9,0.3-1.5v-4h-1v3.6c0,1.5-0.3,2-1.2,2h-1.9v-0.1
			c0.2-0.4,0.2-0.9,0.2-1.5v-4h-1v3.7c-0.1,1.2-0.6,1.9-1.5,1.9h-1h-0.3h-2.5h-0.2h-2.7h-0.2H15h-0.3h-2c-0.5,0-1-0.1-1.5-0.3
			c0.7-0.3,1.2-0.8,1.5-1.3c0.3-0.6,0.5-1.2,0.5-1.8c0-0.8-0.3-1.5-0.8-2.1c-0.6-0.6-1.4-0.9-2.3-0.9c-1,0-1.8,0.3-2.3,0.9
			C7.3,67.4,7,68.1,7,68.9c0,0.7,0.2,1.3,0.5,1.8c0.4,0.6,0.9,1,1.5,1.3c-0.4,0.2-0.9,0.3-1.5,0.3H5.9H5.3H3.5v-5.6h-1v5.5
			c0,1.7-0.7,2.4-2,2.4v1c1.7-0.1,2.7-0.9,2.9-2.4h1.9h0.6h0.9c0.8,0,1.4,0,1.7-0.1c0.5-0.1,1.1-0.3,1.7-0.7
			c0.6,0.4,1.2,0.6,1.7,0.7c0.3,0.1,0.9,0.1,1.7,0.1h1.1H15h2.6h0.2h2.7h0.2h2.5h0.3h9.3c1.4,0,2.1-0.9,2.1-2.5v-4h-1V70.4z
			 M8.7,70.3c-0.3-0.5-0.5-1-0.5-1.5c0-1.1,0.8-2,2-2c0.6,0,1.1,0.2,1.5,0.6c0.3,0.4,0.5,0.8,0.5,1.4c0,0.5-0.2,1-0.5,1.5
			c-0.4,0.5-0.9,0.9-1.5,1.2C9.5,71.2,9,70.8,8.7,70.3z"/>
		<rect x="42.7" y="63.2" fill="#59585B" width="1" height="1.2"/>
		<rect x="40.8" y="63.2" fill="#59585B" width="1" height="1.2"/>
		<path fill="#59585B" d="M48.9,70.4c0,0.7-0.1,1.1-0.2,1.4c-0.2,0.4-0.6,0.6-1.2,0.6h-0.7h-0.3h-0.3c-1.2,0-1.9-0.9-1.9-2.3v-4.6
			h-3.1c-1.7,0-2.8,1.4-2.8,3.5c0,1.9,1.1,3.4,2.6,3.4c1,0,1.8-0.4,2.2-1.1c0.4,1.4,1.3,2.1,2.8,2.1h0.4h0.3h1
			c1.4,0,2.1-0.9,2.1-2.5v-6.8h-1V70.4z M43.3,68.8c0,1.9-0.7,2.8-1.9,2.8c-1.1,0-1.9-1.2-1.9-2.7c0-1.5,0.8-2.7,1.9-2.7h1.8V68.8z"
			/>
		<path fill="#59585B" d="M68.2,67H67l1.7-3h-1.2c-1,1.7-1.7,3-2.2,4h3c1.2,0,2.2,0.4,2.8,1.2c0.5,0.7,0.8,1.6,0.8,2.7
			c0,0.2,0,0.3,0,0.5h-8.2H63h-2.2h-0.2h-2.7h-0.2H55c-0.7,0-0.8,0-0.9,0c-0.4-0.1-0.7-0.2-0.8-0.4c-0.2-0.3-0.3-0.8-0.3-1.4v-6.5
			h-1v7.1c0,0.8,0.2,1.3,0.6,1.8c0.4,0.4,0.8,0.6,1.3,0.6h0.9H55h2.7h0.2h2.7h0.2H63h0.6H73V72c0-1.5-0.4-2.7-1.3-3.6
			C70.9,67.5,69.7,67,68.2,67z"/>
		<path fill="#59585B" d="M77.3,66.8c-1.7,0-2.8,1.3-2.8,3.2c0,1.9,1.2,3.2,2.8,3.2c0.8,0,1.4-0.3,1.7-0.8c0,1.6-0.7,2.4-2,2.4v1
			c2.1-0.1,3.1-1.2,3.1-3.6V70C80,68.2,78.9,66.8,77.3,66.8z M77.3,72.3c-1.1,0-1.8-1-1.8-2.3c0-1.3,0.7-2.3,1.7-2.3
			c1.1,0,1.8,1,1.8,2.3C79,71.3,78.4,72.3,77.3,72.3z"/>
		<rect x="87.2" y="64.6" fill="#59585B" width="1" height="1.2"/>
		<path fill="#59585B" d="M104.7,68.1c-0.9,0-1.7,0.3-2.2,0.9c-0.6,0.6-0.8,1.4-0.8,2.4c0,0.4,0,0.7,0.1,1h-2h-0.3h-2.5h-0.2h-2.5
			h-0.4h-2.1c0.1-0.5,0.2-1,0.2-1.6v-4h-1v3.8c0,2.6-1.2,4.2-3.1,4.2c-1.9,0-3.1-1.7-3.1-4.2v-3.8h-1v4c0,2.9,1.7,5,4.1,5
			c1.5,0,2.8-0.9,3.5-2.4h2.4h0.4h2.5h0.2h2.5h0.3h2.4c0.6,0.8,1.4,1.3,2.5,1.3c0.9,0,1.7-0.3,2.2-1c0.5-0.6,0.8-1.4,0.8-2.3
			c0-1-0.2-1.7-0.8-2.3C106.4,68.4,105.6,68.1,104.7,68.1z M104.6,73.8c-0.6,0-1.1-0.2-1.4-0.7c-0.3-0.4-0.4-0.9-0.4-1.6
			c0-0.7,0.1-1.3,0.4-1.7c0.3-0.5,0.8-0.8,1.5-0.8c0.6,0,1.1,0.2,1.4,0.7c0.2,0.4,0.4,0.9,0.4,1.6C106.5,73,105.9,73.8,104.6,73.8z"
			/>
		<rect x="117.8" y="63" fill="#59585B" width="1" height="1.2"/>
		<rect x="116.9" y="64.6" fill="#59585B" width="1" height="1.2"/>
		<rect x="118.7" y="64.6" fill="#59585B" width="1" height="1.2"/>
		<path fill="#59585B" d="M134.6,67h-1.3l1.7-3h-1.2c-1,1.7-1.7,3-2.2,4h3c1.2,0,2.2,0.4,2.8,1.2c0.5,0.7,0.8,1.6,0.8,2.7
			c0,0.2,0,0.3,0,0.5H130h-0.6h-2.2h-0.2h-2.7h-0.2h-2.7h-0.2h-1.7c0.2-0.4,0.3-0.9,0.3-1.5v-4h-1v3.6c0,0.7-0.1,1.1-0.2,1.4
			c-0.2,0.4-0.6,0.6-1.2,0.6h-0.6v0h-2.4v-5.6h-1v5.5c0,1.7-0.7,2.4-2,2.4v1c1.7-0.1,2.7-0.9,2.9-2.4h2.2h0.3h4.5h0.2h2.7h0.2h2.7
			h0.2h2.2h0.6h9.4V72c0-1.5-0.4-2.7-1.3-3.6C137.2,67.5,136.1,67,134.6,67z"/>
		<rect x="141.3" y="64.1" fill="#59585B" width="1" height="9.4"/>
		<path fill="#59585B" d="M141.5,62.3c0-0.5,0.2-0.8,0.6-0.8c0.3,0,0.5,0.2,0.5,0.5l0.6-0.1c-0.1-0.6-0.5-0.9-1.1-0.9
			c-0.8,0-1.2,0.5-1.2,1.3c0,0.2,0,0.3,0.1,0.5h-0.6v0.6h2.8v-0.6h-1.5C141.6,62.7,141.5,62.5,141.5,62.3z"/>
	</g>
</g>
</svg>
