<?xml version="1.0" encoding="utf-8"?>
<!-- Generator: Adobe Illustrator 18.0.0, SVG Export Plug-In . SVG Version: 6.00 Build 0)  -->
<!DOCTYPE svg PUBLIC "-//W3C//DTD SVG 1.1//EN" "http://www.w3.org/Graphics/SVG/1.1/DTD/svg11.dtd">
<svg version="1.1" id="Layer_1" xmlns="http://www.w3.org/2000/svg" xmlns:xlink="http://www.w3.org/1999/xlink" x="0px" y="0px"
	 viewBox="0 0 17.4 23.3" enable-background="new 0 0 17.4 23.3" xml:space="preserve">
<g>
	<defs>
		<rect id="SVGID_1_" x="0" y="0" width="17.4" height="23.3"/>
	</defs>
	<clipPath id="SVGID_2_">
		<use xlink:href="#SVGID_1_"  overflow="visible"/>
	</clipPath>
	<path clip-path="url(#SVGID_2_)" fill="#808285" d="M5,0.2c0.1,2.1,0.1,4.2,0.2,6.3c0,0.3-0.1,0.5-0.3,0.7C4,7.6,3.7,8.7,4.2,9.7
		c1.3,2.4,2.6,4.9,3.9,7.3c0.5,0.9,1.3,1.2,2.4,0.7c0.3-0.1,0.5-0.1,0.7,0.1c1.6,1.3,3.3,2.6,5,3.9c-0.2,0.1-0.3,0.2-0.5,0.3
		c-1,0.4-2,0.9-3.1,1.2c-1.1,0.3-2.2,0.1-3.2-0.5c-1.1-0.6-2.1-1.3-3-2.2c-1.6-1.7-3-3.5-4.2-5.5C1,13,0.5,10.7,0.3,8.5
		C0.1,7.3,0,6.1,0,4.9c-0.1-2.2,1-3.7,3.1-4.4c0.5-0.2,1-0.3,1.5-0.4H5z"/>
	<path clip-path="url(#SVGID_2_)" fill="#808285" d="M6.5,0C8,0.8,7.7,0.7,7.8,2.3c0,1,0,2,0,3c0,0.6-0.9,1.4-1.5,1.3
		c-0.1,0-0.2-0.3-0.3-0.4C6,4.3,6,2.4,5.9,0.5c0-0.2,0-0.3,0-0.5H6.5z"/>
	<path clip-path="url(#SVGID_2_)" fill="#808285" d="M16.9,21.2c-1.9-1.5-3.6-2.9-5.5-4.4c0.5-0.3,0.9-0.6,1.4-0.7
		c0.2-0.1,0.6,0,0.8,0.2c1.2,0.8,2.3,1.7,3.4,2.6c0.3,0.2,0.4,0.6,0.3,0.9C17.2,20.3,17.1,20.7,16.9,21.2"/>
</g>
</svg>
