<?xml version="1.0" encoding="utf-8"?>
<!-- Generator: Adobe Illustrator 18.0.0, SVG Export Plug-In . SVG Version: 6.00 Build 0)  -->
<!DOCTYPE svg PUBLIC "-//W3C//DTD SVG 1.1//EN" "http://www.w3.org/Graphics/SVG/1.1/DTD/svg11.dtd">
<svg version="1.1" id="Layer_1" xmlns="http://www.w3.org/2000/svg" xmlns:xlink="http://www.w3.org/1999/xlink" x="0px" y="0px"
	 viewBox="0 0 22.1 22.1" enable-background="new 0 0 22.1 22.1" xml:space="preserve">
<g>
	<path fill="#FFFFFF" d="M21.3,0.1L19,1.1c-0.2,0.1-0.3,0.2-0.4,0.3l-3.8,3.8L1.6,3.6C1.4,3.6,1.1,3.7,1,3.9L0.2,4.6
		C-0.2,5,0,5.6,0.5,5.9l9.4,4.2l-2.7,2.7H2.5c-0.2,0-0.4,0.1-0.6,0.2l-0.4,0.4c-0.4,0.4-0.3,1.1,0.2,1.3l4,1.7l1.7,4
		c0.2,0.5,0.9,0.6,1.3,0.2l0.4-0.4c0.1-0.1,0.2-0.3,0.2-0.6V15l2.7-2.7l4.2,9.4c0.2,0.5,0.9,0.6,1.3,0.2l0.7-0.7
		c0.2-0.2,0.3-0.4,0.2-0.6L16.9,7.4l3.8-3.8C20.9,3.4,21,3.3,21,3.2l1.1-2.3C22.3,0.3,21.8-0.2,21.3,0.1z"/>
</g>
</svg>
